#!OML:ASF X:\für Bonn\!DataBase\2005_08_12_Daniel\c3d\Daniel.ASF
:FULLY-SPECIFIED
:DEGREES
228
root -13.3577 16.1102 -12.7076 -6.24678 42.7586 -720.608
lowerback 41.9323 -7.7015 4.74862
upperback 9.88319 -6.96991 -1.39432
thorax -9.39304 -2.92248 -0.986275
lowerneck -7.4261 -5.75147 -8.65819
upperneck -6.15723 -6.91652 5.97693
head -0.134539 -3.2904 3.26148
rclavicle -6.0033e-014 5.68524e-014
rhumerus -33.7805 3.7257 -90.4204
rradius 44.8786
rwrist 3.51873
rhand -26.6491 22.921
rfingers 7.12502
rthumb -0.0811701 -7.05868
lclavicle -6.0033e-014 5.68524e-014
lhumerus -7.02096 15.1051 91.8365
lradius 41.0849
lwrist -19.6199
lhand -18.4584 -3.3201
lfingers 7.12502
lthumb 7.82795 26.515
rfemur -32.5176 5.61377 24.467
rtibia 61.2952
rfoot -20.0103 8.58369
rtoes -5.94044
lfemur -0.72889 4.43295 -17.7579
ltibia 76.1907
lfoot -5.64659 -13.6965
ltoes -9.2942
229
root -13.2909 16.1102 -12.6279 -6.32704 42.8927 -720.565
lowerback 41.9319 -7.65009 4.77736
upperback 9.89395 -6.894 -1.40714
thorax -9.38112 -2.88606 -1.04834
lowerneck -7.48896 -5.75161 -8.67744
upperneck -6.09734 -6.91014 5.98922
head -0.103515 -3.28631 3.26664
rclavicle 1.00187e-013 -1.12115e-013
rhumerus -33.5368 3.70341 -90.3895
rradius 45.131
rwrist 3.68854
rhand -26.6697 22.8885
rfingers 7.12502
rthumb -0.101043 -7.09122
lclavicle 1.00187e-013 -1.12115e-013
lhumerus -7.05867 15.1251 91.8155
lradius 40.9676
lwrist -19.7704
lhand -18.4718 -3.35502
lfingers 7.12502
lthumb 7.81495 26.4805
rfemur -32.0306 5.61573 24.497
rtibia 61.4253
rfoot -20.4355 8.4834
rtoes -5.72887
lfemur -1.5773 4.5893 -17.5743
ltibia 77.1675
lfoot -6.42056 -13.46
ltoes -9.21521
230
root -13.2253 16.1108 -12.5496 -6.40318 43.0276 -720.503
lowerback 41.9473 -7.58609 4.79767
upperback 9.90689 -6.80631 -1.43357
thorax -9.37192 -2.84354 -1.1251
lowerneck -7.58077 -5.71751 -8.56905
upperneck -6.01095 -6.86684 5.90284
head -0.07085 -3.26601 3.21453
rclavicle -8.54774e-014 5.28767e-014
rhumerus -33.2712 3.68325 -90.3691
rradius 45.3583
rwrist 3.83093
rhand -26.7504 22.8153
rfingers 7.12502
rthumb -0.179 -7.1644
lclavicle -8.54774e-014 5.28767e-014
lhumerus -7.05488 15.1915 91.7947
lradius 40.7966
lwrist -19.9424
lhand -18.4662 -3.46282
lfingers 7.12502
lthumb 7.82035 26.3725
rfemur -31.5424 5.61611 24.5217
rtibia 61.5584
rfoot -20.8315 8.36134
rtoes -5.56867
lfemur -2.47627 4.76157 -17.4111
ltibia 78.1354
lfoot -7.22003 -13.2781
ltoes -8.81602
231
root -13.1585 16.1273 -12.4687 -6.47586 43.1679 -720.462
lowerback 41.9399 -7.51564 4.81413
upperback 9.92833 -6.7109 -1.43835
thorax -9.34262 -2.79791 -1.18206
lowerneck -7.68705 -5.64017 -8.37179
upperneck -5.94909 -6.77218 5.70798
head -0.0554429 -3.22105 3.11128
rclavicle 8.07066e-014 -6.79844e-014
rhumerus -32.9714 3.67686 -90.3258
rradius 45.5508
rwrist 4.00818
rhand -26.8523 22.7936
rfingers 7.12502
rthumb -0.277443 -7.18596
lclavicle 8.07066e-014 -6.79844e-014
lhumerus -7.05426 15.2439 91.7892
lradius 40.6714
lwrist -20.0946
lhand -18.4838 -3.49526
lfingers 7.12502
lthumb 7.80338 26.3407
rfemur -30.9873 5.59739 24.5538
rtibia 61.6211
rfoot -21.2506 8.26946
rtoes -5.44452
lfemur -3.3795 4.9307 -17.2332
ltibia 78.9864
lfoot -7.96098 -13.1738
ltoes -8.45853
232
root -13.0968 16.1245 -12.3934 -6.55176 43.3215 -720.4
lowerback 41.9756 -7.44701 4.83709
upperback 9.9321 -6.61481 -1.46489
thorax -9.34917 -2.75135 -1.26242
lowerneck -7.78042 -5.57439 -8.20487
upperneck -5.87692 -6.69185 5.54259
head -0.0351702 -3.18306 3.02369
rclavicle -9.74045e-015 2.10712e-014
rhumerus -32.6897 3.64348 -90.2942
rradius 45.7627
rwrist 4.15785
rhand -26.9109 22.7031
rfingers 7.12502
rthumb -0.334003 -7.27635
lclavicle -9.74045e-015 2.10712e-014
lhumerus -7.05512 15.331 91.7691
lradius 40.5035
lwrist -20.2902
lhand -18.4772 -3.57198
lfingers 7.12502
lthumb 7.80976 26.2638
rfemur -30.5393 5.57019 24.5734
rtibia 61.7786
rfoot -21.6115 8.1641
rtoes -5.10446
lfemur -4.36282 5.09981 -17.0584
ltibia 79.8853
lfoot -8.74512 -13.1704
ltoes -8.00348
233
root -13.037 16.1205 -12.3188 -6.62901 43.4682 -720.337
lowerback 42.0308 -7.36348 4.81333
upperback 9.9325 -6.51583 -1.47126
thorax -9.35879 -2.70364 -1.29819
lowerneck -7.95413 -5.49306 -8.02903
upperneck -5.72873 -6.58714 5.33333
head 0.0196927 -3.13295 2.91763
rclavicle 9.323e-014 -1.12512e-013
rhumerus -32.4316 3.67138 -90.2565
rradius 46.0098
rwrist 4.24785
rhand -26.9714 22.5993
rfingers 7.12502
rthumb -0.392431 -7.38004
lclavicle 9.323e-014 -1.12512e-013
lhumerus -7.08028 15.4714 91.7673
lradius 40.3743
lwrist -20.4869
lhand -18.4819 -3.60741
lfingers 7.12502
lthumb 7.80519 26.2285
rfemur -30.1051 5.55227 24.6068
rtibia 61.9487
rfoot -21.9766 8.02824
rtoes -5.0131
lfemur -5.36572 5.27537 -16.8882
ltibia 80.7173
lfoot -9.51179 -13.2138
ltoes -7.6476
234
root -12.9784 16.116 -12.2463 -6.70938 43.6256 -720.296
lowerback 42.0785 -7.29065 4.84827
upperback 9.92603 -6.40928 -1.4988
thorax -9.38049 -2.65253 -1.38922
lowerneck -8.06403 -5.42475 -7.87687
upperneck -5.63338 -6.50159 5.18311
head 0.0515443 -3.09226 2.83813
rclavicle 8.62725e-014 -5.4467e-014
rhumerus -32.1508 3.63764 -90.2206
rradius 46.2146
rwrist 4.36968
rhand -27.0549 22.5361
rfingers 7.12502
rthumb -0.473117 -7.44309
lclavicle 8.62725e-014 -5.4467e-014
lhumerus -7.12568 15.5353 91.7284
lradius 40.2574
lwrist -20.6867
lhand -18.4512 -3.62867
lfingers 7.12502
lthumb 7.83488 26.2062
rfemur -29.7027 5.54604 24.6483
rtibia 62.1591
rfoot -22.3573 7.90446
rtoes -4.84945
lfemur -6.42325 5.41694 -16.7207
ltibia 81.5086
lfoot -10.2784 -13.3212
ltoes -7.23628
